<svg width="15" height="15" viewBox="0 0 15 15" fill="none" xmlns="http://www.w3.org/2000/svg">
<path d="M5.92105 4.73684C5.60711 4.73726 5.30614 4.86216 5.08415 5.08415C4.86216 5.30614 4.73726 5.60711 4.73684 5.92105V9.07895C4.73726 9.39289 4.86216 9.69386 5.08415 9.91585C5.30614 10.1378 5.60711 10.2627 5.92105 10.2632H9.07895C9.39289 10.2627 9.69386 10.1378 9.91585 9.91585C10.1378 9.69386 10.2627 9.39289 10.2632 9.07895V5.92105C10.2627 5.60711 10.1378 5.30614 9.91585 5.08415C9.69386 4.86216 9.39289 4.73726 9.07895 4.73684H5.92105ZM9.47368 5.92105V9.07895C9.47368 9.18364 9.4321 9.28404 9.35807 9.35807C9.28404 9.4321 9.18364 9.47368 9.07895 9.47368H5.92105C5.81636 9.47368 5.71596 9.4321 5.64193 9.35807C5.5679 9.28404 5.52632 9.18364 5.52632 9.07895V5.92105C5.52632 5.81636 5.5679 5.71596 5.64193 5.64193C5.71596 5.5679 5.81636 5.52632 5.92105 5.52632H9.07895C9.18364 5.52632 9.28404 5.5679 9.35807 5.64193C9.4321 5.71596 9.47368 5.81636 9.47368 5.92105ZM15 6.71053V13.0263C14.9994 13.5496 14.7912 14.0512 14.4212 14.4212C14.0512 14.7912 13.5496 14.9994 13.0263 15H6.71053C6.18727 14.9994 5.68561 14.7912 5.31561 14.4212C4.94561 14.0512 4.73747 13.5496 4.73684 13.0263V11.4474H5.52632V13.0263C5.52673 13.3403 5.65163 13.6412 5.87362 13.8632C6.09562 14.0852 6.39658 14.2101 6.71053 14.2105H13.0263C13.3403 14.2101 13.6412 14.0852 13.8632 13.8632C14.0852 13.6412 14.2101 13.3403 14.2105 13.0263V6.71053C14.2101 6.39658 14.0852 6.09562 13.8632 5.87362C13.6412 5.65163 13.3403 5.52673 13.0263 5.52632H11.4474V4.73684H13.0263C13.5496 4.73747 14.0512 4.94561 14.4212 5.31561C14.7912 5.68561 14.9994 6.18727 15 6.71053ZM8.28947 0C8.81274 0.000626786 9.31439 0.208769 9.68439 0.578771C10.0544 0.948773 10.2625 1.45042 10.2632 1.97368V3.55263H9.47368V1.97368C9.47327 1.65974 9.34837 1.35877 9.12638 1.13678C8.90438 0.91479 8.60342 0.789891 8.28947 0.789474H1.97368C1.65974 0.789891 1.35877 0.91479 1.13678 1.13678C0.91479 1.35877 0.789891 1.65974 0.789474 1.97368V8.28947C0.789891 8.60342 0.91479 8.90438 1.13678 9.12638C1.35877 9.34837 1.65974 9.47327 1.97368 9.47368H3.55263V10.2632H1.97368C1.45042 10.2625 0.948773 10.0544 0.578771 9.68439C0.208769 9.31439 0.000626786 8.81274 0 8.28947V1.97368C0.000626786 1.45042 0.208769 0.948773 0.578771 0.578771C0.948773 0.208769 1.45042 0.000626786 1.97368 0H8.28947Z" fill="#3594EE"/>
</svg>
